<svg width="80" height="80" viewBox="0 0 80 80" fill="none" xmlns="http://www.w3.org/2000/svg">
<path fill-rule="evenodd" clip-rule="evenodd" d="M40 74C58.7777 74 74 58.7777 74 40C74 21.2223 58.7777 6 40 6C21.2223 6 6 21.2223 6 40C6 58.7777 21.2223 74 40 74ZM40 80C62.0914 80 80 62.0914 80 40C80 17.9086 62.0914 0 40 0C17.9086 0 0 17.9086 0 40C0 62.0914 17.9086 80 40 80Z" fill="#DCEBFF"/>
<path fill-rule="evenodd" clip-rule="evenodd" d="M6 40C6 58.7777 21.2223 74 40 74V80C17.9086 80 0 62.0914 0 40H6Z" fill="#4391F7"><animateTransform attributeType="xml"
      attributeName="transform"
      type="rotate"
      from="0 40 40"
      to="360 40 40"
      dur="0.6s"
      repeatCount="indefinite"/>
    </path>
</svg>
